# xmcd CD database file
#
# Track frame offsets:
#	150
#	21616
#	40686
#	62315
#	83765
#	105452
#	129885
#	150139
#	171841
#	191617
#	210885
#	230477
#	250492
#	272419
#	293828
#	314904
#	335795
#
# Disc length: 4754 seconds
#
# Revision: 0
# Processed by: cddbd v1.5.2PL0 Copyright (c) Steve Scherf et al.
# Submitted via: CDex 1.51
#
DISCID=e4129011
DTITLE=Salsa con libertad - Salsa con libertad
DYEAR=2003
DGENRE=Salsa
TTITLE0=Marc Anthony - Celos
TTITLE1=Gilberto St. Rosa - Puedo Decir
TTITLE2=Victor Manuelle - No Eres La Mujer
TTITLE3=Tony Vega - Sal De Aqui
TTITLE4=Jonny Ray - Dejaria Tod
TTITLE5=Tito Rojas - El Amor que tu me das
TTITLE6=Frankie Negron - Comerte a besos
TTITLE7=Dominic /Locura tengo de ti
TTITLE8=Heuy Dunbar - A cambio de que
TTITLE9=Gilberto St Rosa - La Agarro bajando
TTITLE10=T.Nieves Y R.Blades - Como llego a tu amor
TTITLE11=Charlie Cruz - Un Chin Chin
TTITLE12=El Gran Combo - Se nos perdio el amor
TTITLE13=Pedro Conga - Eso me gusta a mi
TTITLE14=Kelvin Ceballo - Como fue capaz
TTITLE15=George Lamond - La untima Noche
TTITLE16=Eddy Santiago - Anoche valio la pena
EXTD=YEAR: 2003
EXTT0=
EXTT1=
EXTT2=
EXTT3=
EXTT4=
EXTT5=
EXTT6=
EXTT7=
EXTT8=
EXTT9=
EXTT10=
EXTT11=
EXTT12=
EXTT13=
EXTT14=
EXTT15=
EXTT16=
PLAYORDER=
